name Walk8.mot
datacolumns 19
datarows 30
range 1.96300000 1.99200000
endheader

                time	   L_ground_force_vx	   L_ground_force_vy	   L_ground_force_vz	   L_ground_force_px	   L_ground_force_py	   L_ground_force_pz	   R_ground_force_vx	   R_ground_force_vy	   R_ground_force_vz	   R_ground_force_px	   R_ground_force_py	   R_ground_force_pz	   L_ground_torque_x	   L_ground_torque_y	   L_ground_torque_z	   R_ground_torque_x	   R_ground_torque_y	   R_ground_torque_z	
          1.96300000	          0.17611137	          0.38850888	         -0.01305039	          0.00030984	          0.00000000	          0.00013158	        -19.75942379	        647.00561255	        -48.05205282	          0.10715679	          0.00000000	          0.06720724	          0.00000000	          0.00019586	          0.00000000	          0.00000000	          2.79521882	          0.00000000	
          1.96400000	          0.17001229	          0.38615798	         -0.01298824	          0.00023845	          0.00000000	          0.00011078	        -19.18376118	        644.88151760	        -47.95535407	          0.10761939	          0.00000000	          0.06724821	          0.00000000	          0.00019204	          0.00000000	          0.00000000	          2.80697256	          0.00000000	
          1.96500000	          0.16378935	          0.38254775	         -0.01288230	          0.00017222	          0.00000000	          0.00009132	        -18.61864542	        642.79984073	        -47.85883443	          0.10808398	          0.00000000	          0.06728885	          0.00000000	          0.00018783	          0.00000000	          0.00000000	          2.81882103	          0.00000000	
          1.96600000	          0.15747659	          0.37779892	         -0.01273669	          0.00011098	          0.00000000	          0.00007317	        -18.06387803	        640.76114808	        -47.76260015	          0.10855048	          0.00000000	          0.06732918	          0.00000000	          0.00018326	          0.00000000	          0.00000000	          2.83074665	          0.00000000	
          1.96700000	          0.15110549	          0.37202625	         -0.01255533	          0.00005452	          0.00000000	          0.00005629	        -17.51925609	        638.76599243	        -47.66675492	          0.10901878	          0.00000000	          0.06736920	          0.00000000	          0.00017839	          0.00000000	          0.00000000	          2.84273198	          0.00000000	
          1.96800000	          0.14470510	          0.36533859	         -0.01234194	          0.00000265	          0.00000000	          0.00004064	        -16.98457287	        636.81491163	        -47.57139844	          0.10948882	          0.00000000	          0.06740891	          0.00000000	          0.00017326	          0.00000000	          0.00000000	          2.85475963	          0.00000000	
          1.96900000	          0.13830209	          0.35783901	         -0.01210006	         -0.00004481	          0.00000000	          0.00002616	        -16.45961866	        634.90842564	        -47.47662492	          0.10996052	          0.00000000	          0.06744834	          0.00000000	          0.00016791	          0.00000000	          0.00000000	          2.86681213	          0.00000000	
          1.97000000	          0.13192088	          0.34962489	         -0.01183303	         -0.00008807	          0.00000000	          0.00001281	        -15.94418152	        633.04703299	        -47.38252193	          0.11043380	          0.00000000	          0.06748748	          0.00000000	          0.00016238	          0.00000000	          0.00000000	          2.87887177	          0.00000000	
          1.97100000	          0.12558373	          0.34078802	         -0.01154398	         -0.00012732	          0.00000000	          0.00000055	        -15.43804805	        631.23120781	        -47.28916941	          0.11090860	          0.00000000	          0.06752634	          0.00000000	          0.00015671	          0.00000000	          0.00000000	          2.89092043	          0.00000000	
          1.97200000	          0.11931084	          0.33141473	         -0.01123589	         -0.00016275	          0.00000000	         -0.00001067	        -14.94100409	        629.46139747	        -47.19663904	          0.11138487	          0.00000000	          0.06756493	          0.00000000	          0.00015093	          0.00000000	          0.00000000	          2.90293964	          0.00000000	
          1.97300000	          0.11312045	          0.32158606	         -0.01091153	         -0.00019455	          0.00000000	         -0.00002090	        -14.45283526	        627.73802104	        -47.10499389	          0.11186255	          0.00000000	          0.06760327	          0.00000000	          0.00014507	          0.00000000	          0.00000000	          2.91491072	          0.00000000	
          1.97400000	          0.10702893	          0.31137787	         -0.01057352	         -0.00022291	          0.00000000	         -0.00003018	        -13.97332735	        626.06146861	        -47.01428843	          0.11234159	          0.00000000	          0.06764134	          0.00000000	          0.00013915	          0.00000000	          0.00000000	          2.92681511	          0.00000000	
          1.97500000	          0.10105091	          0.30086100	         -0.01022430	         -0.00024802	          0.00000000	         -0.00003855	        -13.50226641	        624.43210150	        -46.92456886	          0.11282192	          0.00000000	          0.06767917	          0.00000000	          0.00013322	          0.00000000	          0.00000000	          2.93863478	          0.00000000	
          1.97600000	          0.09519931	          0.29010143	         -0.00986613	         -0.00027006	          0.00000000	         -0.00004607	        -13.03943868	        622.85025341	        -46.83587363	          0.11330351	          0.00000000	          0.06771676	          0.00000000	          0.00012729	          0.00000000	          0.00000000	          2.95035270	          0.00000000	
          1.97700000	          0.08948550	          0.27916045	         -0.00950114	         -0.00028920	          0.00000000	         -0.00005278	        -12.58463052	        621.31623209	        -46.74823401	          0.11378630	          0.00000000	          0.06775412	          0.00000000	          0.00012138	          0.00000000	          0.00000000	          2.96195320	          0.00000000	
          1.97800000	          0.08391936	          0.26809485	         -0.00913127	         -0.00030563	          0.00000000	         -0.00005871	        -12.13762831	        619.83032105	        -46.66167450	          0.11427024	          0.00000000	          0.06779125	          0.00000000	          0.00011551	          0.00000000	          0.00000000	          2.97342209	          0.00000000	
          1.97900000	          0.07850937	          0.25695701	         -0.00875835	         -0.00031950	          0.00000000	         -0.00006392	        -11.69821860	        618.39278086	        -46.57621300	          0.11475526	          0.00000000	          0.06782818	          0.00000000	          0.00010971	          0.00000000	          0.00000000	          2.98474665	          0.00000000	
          1.98000000	          0.07326268	          0.24579519	         -0.00838404	         -0.00033098	          0.00000000	         -0.00006844	        -11.26618830	        617.00384968	        -46.49186072	          0.11524132	          0.00000000	          0.06786490	          0.00000000	          0.00010398	          0.00000000	          0.00000000	          2.99591529	          0.00000000	
          1.98100000	          0.06818525	          0.23465358	         -0.00800987	         -0.00034024	          0.00000000	         -0.00007232	        -10.84132521	        615.66374326	        -46.40862222	          0.11572834	          0.00000000	          0.06790142	          0.00000000	          0.00009835	          0.00000000	          0.00000000	          3.00691727	          0.00000000	
          1.98200000	          0.06328187	          0.22357258	         -0.00763725	         -0.00034743	          0.00000000	         -0.00007560	        -10.42341859	        614.37265472	        -46.32649553	          0.11621627	          0.00000000	          0.06793773	          0.00000000	          0.00009283	          0.00000000	          0.00000000	          3.01774236	          0.00000000	
          1.98300000	          0.05855626	          0.21258890	         -0.00726745	         -0.00035269	          0.00000000	         -0.00007831	        -10.01225994	        613.13075459	        -46.24547252	          0.11670503	          0.00000000	          0.06797384	          0.00000000	          0.00008742	          0.00000000	          0.00000000	          3.02838066	          0.00000000	
          1.98400000	          0.05401118	          0.20173578	         -0.00690163	         -0.00035617	          0.00000000	         -0.00008050	         -9.60764354	        611.93819169	        -46.16553943	          0.11719454	          0.00000000	          0.06800974	          0.00000000	          0.00008215	          0.00000000	          0.00000000	          3.03882256	          0.00000000	
          1.98500000	          0.04964844	          0.19104312	         -0.00654083	         -0.00035801	          0.00000000	         -0.00008220	         -9.20936658	        610.79509538	        -46.08667737	          0.11768472	          0.00000000	          0.06804541	          0.00000000	          0.00007701	          0.00000000	          0.00000000	          3.04905873	          0.00000000	
          1.98600000	          0.04546903	          0.18053769	         -0.00618600	         -0.00035834	          0.00000000	         -0.00008344	         -8.81722901	        609.70157930	        -46.00886259	          0.11817549	          0.00000000	          0.06808086	          0.00000000	          0.00007202	          0.00000000	          0.00000000	          3.05908018	          0.00000000	
          1.98700000	          0.04147316	          0.17024327	         -0.00583796	         -0.00035729	          0.00000000	         -0.00008426	         -8.43103289	        608.65774607	        -45.93206645	          0.11866676	          0.00000000	          0.06811606	          0.00000000	          0.00006718	          0.00000000	          0.00000000	          3.06887819	          0.00000000	
          1.98800000	          0.03766031	          0.16018081	         -0.00549745	         -0.00035497	          0.00000000	         -0.00008469	         -8.05058180	        607.66369214	        -45.85625497	          0.11915845	          0.00000000	          0.06815103	          0.00000000	          0.00006250	          0.00000000	          0.00000000	          3.07844398	          0.00000000	
          1.98900000	          0.03402934	          0.15036861	         -0.00516512	         -0.00035151	          0.00000000	         -0.00008477	         -7.67568042	        606.71951201	        -45.78138820	          0.11965047	          0.00000000	          0.06818576	          0.00000000	          0.00005798	          0.00000000	          0.00000000	          3.08776825	          0.00000000	
          1.99000000	          0.03057849	          0.14082249	         -0.00484152	         -0.00034702	          0.00000000	         -0.00008451	         -7.30613436	        605.82530113	        -45.70741950	          0.12014276	          0.00000000	          0.06822023	          0.00000000	          0.00005362	          0.00000000	          0.00000000	          3.09684066	          0.00000000	
          1.99100000	          0.02730551	          0.13155587	         -0.00452715	         -0.00034160	          0.00000000	         -0.00008397	         -6.94175046	        604.98115714	        -45.63429530	          0.12063522	          0.00000000	          0.06825446	          0.00000000	          0.00004944	          0.00000000	          0.00000000	          3.10564950	          0.00000000	
          1.99200000	          0.02420762	          0.12258003	         -0.00422240	         -0.00033535	          0.00000000	         -0.00008315	         -6.58233727	        604.18717955	        -45.56195534	          0.12112780	          0.00000000	          0.06828845	          0.00000000	          0.00004542	          0.00000000	          0.00000000	          3.11418178	          0.00000000	
